<svg width="661" height="415" viewBox="0 0 661 415" fill="none" xmlns="http://www.w3.org/2000/svg">
<g filter="url(#filter0_d_806_4)">
<path d="M591.835 133.701C598.298 127.239 598.298 116.761 591.835 110.299L486.522 4.98523C480.059 -1.47732 469.581 -1.47732 463.119 4.98523C456.656 11.4478 456.656 21.9256 463.119 28.3882L556.731 122L463.119 215.612C456.656 222.074 456.656 232.552 463.119 239.015C469.581 245.477 480.059 245.477 486.522 239.015L591.835 133.701ZM80.9238 138.548H580.134V105.452H80.9238V138.548Z" fill="white"/>
</g>
<g filter="url(#filter1_d_806_4)">
<path d="M69.3276 281.299C62.8651 287.761 62.8651 298.239 69.3276 304.701L174.641 410.015C181.103 416.477 191.581 416.477 198.044 410.015C204.506 403.552 204.506 393.074 198.044 386.612L104.432 293L198.044 199.388C204.506 192.926 204.506 182.448 198.044 175.985C191.581 169.523 181.103 169.523 174.641 175.985L69.3276 281.299ZM580.239 276.452L81.0291 276.452V309.548L580.239 309.548V276.452Z" fill="white"/>
</g>
<defs>
<filter id="filter0_d_806_4" x="80.9238" y="0.138306" width="579.758" height="243.723" filterUnits="userSpaceOnUse" color-interpolation-filters="sRGB">
<feFlood flood-opacity="0" result="BackgroundImageFix"/>
<feColorMatrix in="SourceAlpha" type="matrix" values="0 0 0 0 0 0 0 0 0 0 0 0 0 0 0 0 0 0 127 0" result="hardAlpha"/>
<feOffset dx="64"/>
<feComposite in2="hardAlpha" operator="out"/>
<feColorMatrix type="matrix" values="0 0 0 0 0.490196 0 0 0 0 0.482353 0 0 0 0 0.482353 0 0 0 0.25 0"/>
<feBlend mode="normal" in2="BackgroundImageFix" result="effect1_dropShadow_806_4"/>
<feBlend mode="normal" in="SourceGraphic" in2="effect1_dropShadow_806_4" result="shape"/>
</filter>
<filter id="filter1_d_806_4" x="0.480713" y="171.138" width="579.758" height="243.723" filterUnits="userSpaceOnUse" color-interpolation-filters="sRGB">
<feFlood flood-opacity="0" result="BackgroundImageFix"/>
<feColorMatrix in="SourceAlpha" type="matrix" values="0 0 0 0 0 0 0 0 0 0 0 0 0 0 0 0 0 0 127 0" result="hardAlpha"/>
<feOffset dx="-64"/>
<feComposite in2="hardAlpha" operator="out"/>
<feColorMatrix type="matrix" values="0 0 0 0 0.491667 0 0 0 0 0.483472 0 0 0 0 0.483472 0 0 0 0.25 0"/>
<feBlend mode="normal" in2="BackgroundImageFix" result="effect1_dropShadow_806_4"/>
<feBlend mode="normal" in="SourceGraphic" in2="effect1_dropShadow_806_4" result="shape"/>
</filter>
</defs>
</svg>
